<svg width="70" height="65" viewBox="0 0 70 65" fill="none" xmlns="http://www.w3.org/2000/svg">
<path fill-rule="evenodd" clip-rule="evenodd" d="M65.2459 34.5872C65.2459 37.2905 64.8623 39.9029 64.1886 42.3975C67.066 43.9212 69.0322 46.9432 69.0335 50.4199C69.0335 55.4242 64.9611 59.4966 59.9568 59.4966C57.9046 59.4966 56.0159 58.8047 54.494 57.6517C49.2248 62.109 42.4347 64.8251 35.0066 64.8251C18.3331 64.8251 4.7673 51.2597 4.7673 34.5872C4.7673 17.9137 18.3345 4.34657 35.008 4.34657C51.6813 4.34657 65.2459 17.9124 65.2459 34.5872ZM35.4163 6.34601C35.2782 6.34468 35.1435 6.32515 35.0066 6.32515C25.9854 6.32515 17.9562 10.5898 12.7818 17.1904C15.684 17.52 19.0697 17.6821 22.6509 16.4866C26.0907 15.3372 28.534 12.944 31.6301 9.91384C32.7609 8.80694 34.018 7.59151 35.4163 6.34601ZM16.4892 19.4033C14.6337 19.4033 12.9333 19.2107 11.4402 19.0211C9.99709 21.1994 8.84102 23.5824 8.03974 26.1249C9.15994 26.1262 10.2841 26.2591 11.4535 26.4186L11.4561 26.419C13.8396 26.7406 16.5419 27.1051 19.9357 26.2817C27.602 24.4218 31.468 19.887 34.7732 15.4018C37.6625 11.4796 41.6121 9.54886 45.454 8.34938C43.1726 7.43737 40.7502 6.81021 38.2224 6.52141C36.2389 8.17398 34.5956 9.77565 33.0126 11.3255C29.8637 14.4065 27.1476 17.0664 23.2768 18.3607C20.9084 19.154 18.606 19.4033 16.4892 19.4033ZM33.0046 62.7469C33.669 62.7956 34.3303 62.8496 35.0066 62.8496C41.8677 62.8496 48.1294 60.3523 53.0283 56.2715C51.6906 54.6876 50.8814 52.6487 50.8814 50.4225C50.8814 47.1634 52.6133 44.3086 55.1992 42.7071C54.8957 42.0799 54.5928 41.4488 54.2987 40.857C51.0222 34.2723 48.431 29.0425 58.4043 18.7589C55.8144 14.9416 52.3112 11.7972 48.2189 9.62239C43.8672 10.7311 39.4572 12.3757 36.3629 16.5747C32.9979 21.1441 28.7107 26.1869 20.4008 28.2018C18.6782 28.6208 17.135 28.7648 15.7234 28.7648C14.0575 28.7648 12.5736 28.5641 11.1886 28.3772C9.84782 28.1938 8.66074 28.0463 7.52327 28.1017C7.03161 30.188 6.74282 32.3522 6.74282 34.5872C6.74282 37.2417 7.13703 39.8024 7.82359 42.2407C9.89035 40.4522 13.2801 40.1018 17.1191 39.7395C21.1139 39.3665 25.6425 38.9391 30.0763 36.9388C30.5534 36.7226 31.0171 36.5064 31.4733 36.2956C35.7738 34.2909 39.8316 32.4022 43.1793 37.3077C44.7475 39.6115 46.2185 40.7449 47.3994 41.653C48.2809 42.3315 49.0427 42.9193 49.6265 43.779C50.5217 45.0993 50.7427 46.5384 50.263 47.9434C49.3143 50.7308 45.7716 53.1479 39.7314 55.1305C38.0563 55.6784 34.0313 57.778 32.9966 60.4299C32.6897 61.2152 32.7029 61.9797 33.0046 62.7469ZM39.2137 25.9929C38.1962 22.9526 39.8422 19.6549 42.8816 18.6388C45.9297 17.6227 49.2195 19.2674 50.2369 22.3054C51.253 25.3444 49.6079 28.6448 46.5689 29.6609C45.9599 29.8651 45.3393 29.9612 44.7303 29.9612C42.2987 29.9612 40.0269 28.422 39.2137 25.9929ZM41.0877 25.3657C41.7596 27.3713 43.9385 28.4574 45.9404 27.7855C47.9447 27.1158 49.0321 24.9387 48.3628 22.9326C47.8251 21.3314 46.3266 20.3154 44.7223 20.3154C44.3192 20.3154 43.9119 20.3783 43.5101 20.5129H43.5088C41.5041 21.1835 40.418 23.361 41.0877 25.3657ZM59.85 24.5972C60.1982 24.0267 60.5237 23.4823 60.7452 22.9787C60.3629 22.1354 59.9408 21.3141 59.4784 20.5168C50.9168 29.4948 52.8502 33.5104 56.0673 39.9764C56.3654 40.5762 56.6724 41.2207 56.9784 41.8584C57.9113 41.5316 58.9105 41.346 59.9541 41.346C60.778 41.346 61.5739 41.4674 62.3331 41.6729C62.4598 41.1959 62.5794 40.717 62.68 40.2285C62.0009 39.1118 59.8855 35.5958 58.7905 33.3789C56.8726 29.5001 58.5938 26.6653 59.85 24.5972ZM63.2677 34.5872C63.2677 31.3529 62.6955 28.2559 61.69 25.3591C61.6373 25.4472 61.5952 25.5331 61.5398 25.6226L61.5381 25.6257C60.2983 27.6686 59.1271 29.5988 60.5631 32.501C61.2143 33.8205 62.2698 35.6613 63.1371 37.1363C63.215 36.2943 63.2677 35.4465 63.2677 34.5872ZM11.2333 35.8921C10.6416 34.1195 11.6009 32.194 13.3736 31.6023C15.1462 31.0105 17.069 31.9712 17.6635 33.7412C17.9509 34.5979 17.8876 35.5178 17.4832 36.3284C17.0783 37.139 16.3825 37.744 15.5245 38.0297C15.1728 38.1484 14.8087 38.2078 14.4464 38.2078C13.9286 38.2078 13.413 38.0877 12.9373 37.8508C12.1267 37.4473 11.5217 36.7514 11.2333 35.8921ZM14.8986 36.1583C15.2543 36.0369 15.5444 35.7853 15.7114 35.4478C15.8815 35.1107 15.9094 34.7272 15.7907 34.371C15.5918 33.7793 15.0381 33.4037 14.4477 33.4037C14.3002 33.4037 14.1501 33.4276 14.0008 33.4763C13.2615 33.7226 12.862 34.5257 13.11 35.2675C13.2287 35.6219 13.4803 35.9133 13.8178 36.0808C14.1563 36.2504 14.5398 36.2743 14.8986 36.1583ZM30.909 62.5174C30.727 61.5859 30.7943 60.638 31.1553 59.7087C32.5616 56.1081 37.4991 53.7809 39.1149 53.252C46.2194 50.9195 47.9779 48.5258 48.3916 47.3055C48.6711 46.4896 48.5391 45.699 47.9912 44.8911C47.5837 44.2928 46.9698 43.8198 46.192 43.22C44.9004 42.2234 43.2913 40.9823 41.5435 38.4213C39.2464 35.0487 36.9215 35.9368 32.3061 38.0864C31.8463 38.3026 31.3715 38.5214 30.8878 38.7402C26.1537 40.8764 21.2472 41.338 17.3038 41.7083C13.1654 42.0972 9.87706 42.4294 8.52875 44.3821C9.79378 47.7959 11.6984 50.8942 14.1022 53.5435C14.9553 49.8609 17.8034 44.8951 22.4728 44.1795C25.7874 43.6723 28.0871 42.9853 29.9324 42.4347L29.9346 42.4338C32.7069 41.6077 34.5354 41.0629 36.7793 42.1973C38.4058 43.0212 39.4258 44.6789 39.3784 46.4183C39.3399 47.8273 38.5679 50.4991 33.8271 52.5814C28.6301 54.8679 26.8801 57.7833 28.1951 61.985C29.085 62.2065 29.9904 62.3832 30.909 62.5174ZM52.8582 50.4212C52.8582 54.3368 56.0425 57.5211 59.9568 57.5211C63.871 57.5211 67.0567 54.3368 67.0567 50.4212C67.0567 46.5056 63.8724 43.3215 59.9568 43.3215C56.0425 43.3215 52.8582 46.5056 52.8582 50.4212ZM22.7718 46.1326C18.4067 46.8019 16.0308 52.5628 15.8173 55.2767C18.7168 57.9667 22.1681 60.0569 25.9916 61.3485C25.0862 56.7831 27.444 53.2299 33.0325 50.772C35.7658 49.5725 37.3578 47.966 37.4012 46.3643C37.4291 45.3841 36.8346 44.4415 35.8872 43.9606C34.4056 43.2107 33.2354 43.515 30.4993 44.3281C28.6948 44.8685 26.2237 45.6055 22.7718 46.1326Z" fill="#BDC3C7"/>
<path fill-rule="evenodd" clip-rule="evenodd" d="M9.55151 9.5555C12.1861 9.5555 14.329 7.41211 14.329 4.7775C14.329 2.14293 12.1861 0 9.55151 0C6.9169 0 4.77401 2.14293 4.77401 4.7775C4.77401 7.41211 6.9169 9.5555 9.55151 9.5555ZM9.55151 1.97682C11.096 1.97682 12.3522 3.23299 12.3522 4.7775C12.3522 6.32248 11.096 7.57821 9.55151 7.57821C8.00698 7.57821 6.7508 6.32248 6.7508 4.7775C6.7508 3.23299 8.00831 1.97682 9.55151 1.97682ZM56.4983 6.73353C57.5764 6.73353 58.4543 5.85562 58.4543 4.7775C58.4543 3.69941 57.5764 2.82195 56.4983 2.82195C55.4202 2.82195 54.5427 3.69941 54.5427 4.7775C54.5427 5.85562 55.4189 6.73353 56.4983 6.73353ZM68.044 9.1285C66.9659 9.1285 66.088 10.006 66.088 11.084C66.088 12.1622 66.9659 13.0401 68.044 13.0401C69.1221 13.0401 70 12.1622 70 11.084C70 10.006 69.1234 9.1285 68.044 9.1285ZM6.72555 16.7962C7.80367 16.7962 8.68158 15.9183 8.68158 14.8402C8.68158 13.7621 7.80367 12.8846 6.72555 12.8846C5.64788 12.8846 4.77002 13.7621 4.77002 14.8402C4.77002 15.9183 5.64788 16.7962 6.72555 16.7962ZM3.37696 52.7488C1.51574 52.7488 0 54.2619 0 56.124C0 57.9861 1.51441 59.4992 3.37696 59.4992C5.23905 59.4992 6.75213 57.9861 6.75213 56.124C6.75213 54.2619 5.23772 52.7488 3.37696 52.7488ZM3.37696 57.5211C2.60447 57.5211 1.97727 56.8925 1.97727 56.1227C1.97727 55.3502 2.60447 54.7243 3.37696 54.7243C4.14767 54.7243 4.77529 55.3502 4.77529 56.1227C4.77396 56.8925 4.14767 57.5211 3.37696 57.5211ZM10.5202 56.5523C9.4421 56.5523 8.5642 57.4303 8.5642 58.5084C8.5642 59.5865 9.4421 60.4639 10.5202 60.4639C11.5983 60.4639 12.4762 59.5865 12.4762 58.5084C12.4762 57.4303 11.5983 56.5523 10.5202 56.5523ZM54.5622 60.8754C53.4841 60.8754 52.6066 61.7529 52.6066 62.831C52.6066 63.9091 53.4841 64.787 54.5622 64.787C55.6403 64.787 56.5182 63.9091 56.5182 62.831C56.5182 61.7529 55.6403 60.8754 54.5622 60.8754Z" fill="#BDC3C7"/>
</svg>
