<svg width="343" height="458" viewBox="0 0 343 458" fill="none" xmlns="http://www.w3.org/2000/svg">
<path fill-rule="evenodd" clip-rule="evenodd" d="M195.447 62.7288L194.015 47.1797L184.424 34.8588C183.261 33.3537 183.002 31.3504 183.76 29.6066C184.517 27.8627 186.147 26.6794 188.046 26.503L203.596 25.0706L215.917 15.4796C217.422 14.3171 219.425 14.0575 221.169 14.8153C222.913 15.573 224.096 17.2026 224.272 19.1021L225.705 34.6512L235.296 46.9721C236.458 48.4772 236.718 50.4805 235.96 52.2244C235.202 53.9682 233.573 55.1515 231.673 55.3279L216.124 56.7603L203.803 66.3513C202.298 67.5139 200.295 67.7734 198.551 67.0157C196.807 66.2579 195.624 64.6283 195.447 62.7288ZM208.765 34.2049C207.986 34.8069 207.042 35.1806 206.056 35.274L198.437 35.9694L203.139 42.0106C203.741 42.789 204.115 43.7336 204.208 44.7197L204.914 52.3281L210.945 47.626C211.723 47.024 212.668 46.6504 213.654 46.5569L221.272 45.8615L216.56 39.8307C215.958 39.0522 215.584 38.1077 215.491 37.1216L214.795 29.5028L208.765 34.2049ZM272.674 273.544C272.663 375.423 190.091 458.005 88.2126 458.005C-13.666 457.995 -96.2485 375.423 -96.2485 273.544C-96.2382 171.666 -13.6661 89.0833 88.2126 89.0833C190.081 89.0833 272.663 171.666 272.674 273.544ZM-34.8826 150.449C-43.9234 159.49 -51.8329 169.611 -58.7044 180.447C-28.0733 188.751 24.1998 194.387 83.2407 194.367C118.086 194.367 150.523 192.436 177.594 189.125C200.949 186.281 220.338 182.357 233.604 177.925C227.085 168.033 219.653 158.795 211.308 150.449C179.784 118.936 136.303 99.4632 88.2126 99.4632C40.1226 99.4632 -3.36917 118.936 -34.8826 150.449ZM239.095 186.976C224.553 192.145 203.938 196.339 178.839 199.422C151.26 202.795 118.449 204.746 83.2199 204.746C21.5426 204.715 -32.298 198.799 -64.2681 189.571C-67.8077 195.986 -70.8697 202.691 -73.5892 209.573C-61.5174 215.126 -40.9549 220.316 -15.1816 223.991C13.8406 228.174 49.5786 230.644 88.1918 230.644C127.366 230.644 163.571 228.101 192.811 223.814C218.013 220.161 238.119 215.033 249.994 209.573C246.89 201.747 243.257 194.2 239.095 186.976ZM-112.389 206.978L-111.59 215.645L-106.244 222.517C-105.082 224.022 -104.822 226.025 -105.58 227.769C-106.338 229.513 -107.967 230.696 -109.867 230.873L-118.534 231.672L-125.406 237.017C-126.911 238.18 -128.914 238.439 -130.658 237.682C-132.402 236.924 -133.585 235.294 -133.761 233.395L-134.561 224.728L-139.906 217.856C-141.069 216.351 -141.328 214.348 -140.571 212.604C-139.813 210.86 -138.183 209.677 -136.284 209.5L-127.617 208.701L-120.745 203.356C-119.24 202.193 -117.237 201.934 -115.493 202.691C-113.749 203.449 -112.566 205.079 -112.389 206.978ZM-124.285 222.994L-123.703 222.538C-122.925 221.936 -121.98 221.562 -120.994 221.468L-120.247 221.396L-120.704 220.815C-121.306 220.036 -121.679 219.091 -121.773 218.105L-121.845 217.368L-122.427 217.825C-123.205 218.427 -124.15 218.801 -125.136 218.894L-125.873 218.967L-125.416 219.548C-124.814 220.327 -124.44 221.271 -124.347 222.257L-124.285 222.994ZM261.069 293.463C261.816 286.914 262.283 280.291 262.283 273.534C262.283 254.58 259.149 236.384 253.554 219.309C239.904 225.454 219.653 230.333 194.316 234.09C164.453 238.471 127.822 241.035 88.1919 241.035C49.1324 241.035 12.9688 238.533 -16.6554 234.277C-42.5325 230.52 -63.2923 225.568 -77.1598 219.361C-82.7442 236.426 -85.8686 254.601 -85.8686 273.544C-85.8686 280.489 -85.3496 287.298 -84.5608 294.024C-69.4476 299.525 -46.2071 304.393 -17.7039 307.829C12.5639 311.483 48.7067 313.621 87.5067 313.621C126.826 313.621 163.415 311.431 193.921 307.673C222.829 304.134 246.247 299.11 261.069 293.463ZM337.019 254.092L342.769 272.849C343.33 274.665 342.852 276.627 341.524 277.997C340.195 279.357 338.254 279.876 336.417 279.367L317.525 274.084L298.769 279.835C296.942 280.395 294.98 279.918 293.62 278.589C292.261 277.26 291.742 275.319 292.25 273.482L297.534 254.591L291.783 235.834C291.223 234.007 291.7 232.046 293.029 230.686C294.357 229.326 296.298 228.807 298.136 229.316L317.027 234.599L335.783 228.849C337.61 228.288 339.572 228.765 340.932 230.094C342.292 231.423 342.811 233.364 342.302 235.201L337.019 254.092ZM315.937 263.704C316.882 263.424 317.899 263.403 318.854 263.673L330.075 266.808L326.66 255.67C326.379 254.726 326.359 253.708 326.628 252.753L329.763 241.533L318.626 244.948C317.681 245.228 316.664 245.249 315.709 244.979L304.488 241.844L307.903 252.982C308.183 253.926 308.204 254.944 307.934 255.899L304.8 267.119L315.937 263.704ZM213.924 393.743C230.396 376.523 243.278 355.94 251.592 333.135C250.959 333.281 250.357 333.519 249.682 333.519C244.845 333.509 240.932 329.606 240.932 324.769C240.942 319.932 244.845 316.019 249.682 316.019C252.246 316.019 254.499 317.161 256.097 318.915C257.322 314.368 258.422 309.781 259.284 305.099C243.319 310.383 221.449 314.721 195.177 317.97C164.173 321.78 127.21 323.991 87.4965 323.991C48.3124 323.991 11.7959 321.832 -18.9598 318.116C-44.9511 314.96 -66.7177 310.715 -82.7962 305.577C-76.3295 340.308 -59.6283 371.396 -35.8168 395.591C-3.0267 400.366 38.306 403.241 83.2302 403.241C133.676 403.251 179.566 399.618 213.924 393.743ZM226.644 333.341C226.081 333.229 225.534 333.063 225.003 332.843C224.472 332.623 223.968 332.354 223.491 332.034C223.012 331.715 222.57 331.352 222.164 330.946C221.758 330.54 221.395 330.098 221.076 329.62C220.757 329.142 220.487 328.638 220.268 328.107C220.048 327.577 219.882 327.03 219.769 326.466C219.657 325.902 219.601 325.333 219.601 324.759C219.601 324.184 219.657 323.615 219.769 323.051C219.882 322.488 220.048 321.941 220.268 321.41C220.487 320.879 220.757 320.375 221.076 319.898C221.395 319.42 221.758 318.977 222.164 318.571C222.57 318.165 223.012 317.802 223.491 317.483C223.968 317.164 224.472 316.894 225.003 316.675C225.534 316.455 226.081 316.289 226.644 316.177C227.208 316.064 227.777 316.008 228.352 316.008C228.926 316.008 229.495 316.065 230.059 316.177C230.622 316.289 231.169 316.455 231.7 316.675C232.231 316.894 232.735 317.164 233.212 317.483C233.691 317.802 234.133 318.165 234.539 318.571C234.945 318.977 235.308 319.42 235.627 319.898C235.946 320.375 236.216 320.879 236.435 321.41C236.656 321.941 236.822 322.488 236.934 323.051C237.046 323.615 237.102 324.184 237.102 324.759C237.102 325.333 237.046 325.902 236.934 326.466C236.822 327.029 236.656 327.577 236.435 328.107C236.216 328.638 235.946 329.142 235.627 329.62C235.308 330.098 234.945 330.54 234.539 330.946C234.133 331.352 233.691 331.715 233.212 332.034C232.735 332.354 232.231 332.623 231.7 332.843C231.169 333.063 230.622 333.229 230.059 333.341C229.495 333.453 228.926 333.509 228.352 333.509C227.777 333.509 227.208 333.453 226.644 333.341ZM209.569 350.416C209.006 350.304 208.459 350.138 207.928 349.918C207.397 349.698 206.893 349.429 206.416 349.109C205.938 348.79 205.495 348.427 205.089 348.021C204.683 347.615 204.32 347.173 204.001 346.695C203.682 346.217 203.412 345.713 203.193 345.182C202.973 344.651 202.807 344.104 202.695 343.541C202.582 342.977 202.526 342.408 202.526 341.834C202.526 341.259 202.582 340.69 202.695 340.126C202.807 339.563 202.973 339.016 203.193 338.485C203.412 337.954 203.682 337.45 204.001 336.973C204.32 336.495 204.683 336.052 205.089 335.646C205.495 335.24 205.938 334.877 206.416 334.558C206.893 334.239 207.397 333.969 207.928 333.75C208.459 333.53 209.006 333.364 209.569 333.251C210.133 333.139 210.702 333.083 211.277 333.083C211.851 333.083 212.42 333.139 212.984 333.251C213.547 333.364 214.094 333.53 214.625 333.75C215.156 333.969 215.66 334.239 216.138 334.558C216.616 334.877 217.058 335.24 217.464 335.646C217.87 336.052 218.233 336.495 218.552 336.973C218.872 337.45 219.141 337.954 219.36 338.485C219.581 339.016 219.747 339.563 219.859 340.126C219.971 340.69 220.027 341.259 220.027 341.834C220.027 342.408 219.971 342.977 219.859 343.541C219.747 344.104 219.581 344.651 219.36 345.182C219.141 345.713 218.872 346.217 218.552 346.695C218.233 347.173 217.87 347.615 217.464 348.021C217.058 348.427 216.616 348.79 216.138 349.109C215.66 349.429 215.156 349.698 214.625 349.918C214.094 350.138 213.547 350.304 212.984 350.416C212.42 350.528 211.851 350.584 211.277 350.584C210.702 350.584 210.133 350.528 209.569 350.416ZM230.91 354.682C230.347 354.57 229.8 354.404 229.269 354.184C228.738 353.964 228.234 353.695 227.757 353.375C227.279 353.056 226.836 352.693 226.43 352.287C226.024 351.881 225.661 351.439 225.342 350.961C225.023 350.483 224.753 349.979 224.534 349.448C224.314 348.918 224.148 348.371 224.036 347.807C223.923 347.243 223.867 346.674 223.867 346.1C223.867 345.525 223.923 344.956 224.036 344.392C224.148 343.829 224.314 343.282 224.534 342.751C224.753 342.22 225.023 341.716 225.342 341.239C225.661 340.761 226.024 340.319 226.43 339.912C226.836 339.506 227.279 339.144 227.757 338.825C228.234 338.505 228.738 338.235 229.269 338.016C229.8 337.796 230.347 337.63 230.91 337.518C231.474 337.406 232.043 337.349 232.618 337.349C233.192 337.349 233.761 337.406 234.325 337.518C234.888 337.63 235.435 337.796 235.966 338.016C236.497 338.235 237.001 338.505 237.479 338.825C237.957 339.144 238.399 339.506 238.805 339.912C239.211 340.319 239.574 340.761 239.893 341.239C240.213 341.716 240.482 342.22 240.702 342.751C240.922 343.282 241.088 343.829 241.2 344.392C241.312 344.956 241.368 345.525 241.368 346.1C241.368 346.674 241.312 347.243 241.2 347.807C241.088 348.371 240.922 348.918 240.702 349.448C240.482 349.979 240.213 350.483 239.893 350.961C239.574 351.439 239.211 351.881 238.805 352.287C238.399 352.693 237.957 353.056 237.479 353.375C237.001 353.695 236.497 353.964 235.966 354.184C235.435 354.404 234.888 354.57 234.325 354.682C233.761 354.794 233.192 354.85 232.618 354.85C232.043 354.85 231.474 354.794 230.91 354.682ZM88.223 447.605C131.134 447.605 170.328 432.025 200.679 406.282C167.775 410.891 127.241 413.621 83.2407 413.621C44.2953 413.621 8.05907 411.483 -22.572 407.808C7.52965 432.678 46.1014 447.615 88.223 447.605ZM-58.6967 66.9906C-37.5956 45.8896 -13.3627 29.5519 14.002 17.9776C42.3374 5.99252 72.0142 0 103.032 0C130.073 0 156.094 4.55412 181.097 13.6624L178.038 15.4694L174.455 18.459L173.054 19.7968L171.844 21.3091L170.846 22.9692L170.078 24.7474L169.838 25.4209L169.311 27.2927L169.19 28.1494C147.931 21.1124 125.879 17.5939 103.032 17.5939C74.3928 17.5939 47.0005 23.1231 20.8557 34.1816C-4.40208 44.8647 -26.7726 59.9479 -46.2559 79.4312C-65.7392 98.9146 -80.8225 121.285 -91.5057 146.543C-96.0276 157.234 -99.625 168.133 -102.298 179.242L-122.124 188.092C-119.164 171.545 -114.359 155.411 -107.71 139.689C-96.1354 112.324 -79.7978 88.0916 -58.6967 66.9906ZM264.763 66.9906C285.864 88.0916 302.202 112.324 313.776 139.689C323.807 163.405 329.64 188.061 331.275 213.656L313.474 211.407C311.683 188.994 306.382 167.373 297.572 146.543C286.889 121.285 271.805 98.9146 252.321 79.4312C248.231 75.3408 244.013 71.4444 239.668 67.7418L240.111 67.5029L241.681 66.3613L245.264 63.3717L246.665 62.0341L247.875 60.5217L248.874 58.8615L249.642 57.0835L249.882 56.4099L250.409 54.5382L250.504 53.8595C255.406 58.0097 260.159 62.3869 264.763 66.9906ZM313.776 317.752C302.202 345.116 285.864 369.349 264.763 390.449C248.34 406.871 230.021 420.409 209.804 431.061L213.516 428.122L213.811 427.883L217.526 424.781L217.813 424.534L221.447 421.336L221.728 421.081L225.275 417.789L225.549 417.528L229.011 414.146L229.277 413.878L232.649 410.404L232.909 410.13L236.19 406.57L236.443 406.289L239.628 402.645L239.875 402.357L242.963 398.632L243.203 398.338L246.193 394.532L246.424 394.232L249.315 390.351L249.538 390.043L252.327 386.086L252.542 385.773L255.226 381.746L255.432 381.425L258.01 377.329L258.209 377.004L260.678 372.842L260.869 372.511L263.228 368.285L263.409 367.949L265.656 363.664L265.83 363.322L265.986 363.004C279.005 347.27 289.534 329.901 297.572 310.897C297.907 310.105 298.237 309.311 298.563 308.516L321.161 297.779C319.023 304.509 316.561 311.167 313.776 317.752Z" fill="url(#paint0_linear_13_85)"/>
<defs>
<linearGradient id="paint0_linear_13_85" x1="262.937" y1="5.32966e-07" x2="-60.9368" y2="458.005" gradientUnits="userSpaceOnUse">
<stop stop-color="#5C5F61"/>
<stop offset="1" stop-color="#BDC3C7"/>
</linearGradient>
</defs>
</svg>
