<svg width="549" height="504" viewBox="0 0 549 504" fill="none" xmlns="http://www.w3.org/2000/svg">
<path fill-rule="evenodd" clip-rule="evenodd" d="M381.631 54.8354L380.007 37.1981L369.128 23.2225C367.809 21.5152 367.514 19.2429 368.374 17.2649C369.233 15.2869 371.082 13.9446 373.237 13.7445L390.874 12.1197L404.849 1.24062C406.557 -0.0780603 408.829 -0.372405 410.807 0.487081C412.785 1.34657 414.127 3.19511 414.327 5.3497L415.952 22.987L426.831 36.9626C428.15 38.6698 428.444 40.9422 427.585 42.9202C426.725 44.8982 424.877 46.2404 422.722 46.4406L405.085 48.0654L391.109 58.9444C389.402 60.2631 387.13 60.5575 385.152 59.698C383.174 58.8385 381.832 56.99 381.631 54.8354ZM396.737 22.4807C395.854 23.1636 394.783 23.5875 393.664 23.6934L385.022 24.4823L390.356 31.3346C391.039 32.2177 391.463 33.2891 391.569 34.4076L392.369 43.0379L399.21 37.7043C400.093 37.0214 401.164 36.5975 402.283 36.4916L410.925 35.7027L405.579 28.8621C404.897 27.9791 404.473 26.9077 404.367 25.7892L403.578 17.1472L396.737 22.4807ZM259.995 84.7293C144.435 84.7293 50.7733 178.402 50.7616 293.963C50.7616 409.524 144.435 503.185 259.995 503.197C375.556 503.197 469.217 409.524 469.229 293.963C469.217 178.402 375.544 84.7293 259.995 84.7293ZM120.369 154.337C156.114 118.591 205.447 96.5032 259.995 96.5032C314.544 96.5032 363.865 118.591 399.622 154.337C409.088 163.803 417.518 174.281 424.912 185.502C409.865 190.529 387.872 194.98 361.38 198.206C330.674 201.962 293.881 204.152 254.356 204.152C187.386 204.175 128.092 197.782 93.3477 188.363C101.142 176.071 110.114 164.592 120.369 154.337ZM431.141 195.769C435.862 203.964 439.983 212.523 443.503 221.401C430.034 227.594 407.228 233.41 378.641 237.554C345.474 242.417 304.406 245.302 259.972 245.302C216.173 245.302 175.635 242.499 142.716 237.755C113.481 233.587 90.157 227.7 76.464 221.401C79.5487 213.594 83.022 205.989 87.0369 198.712C123.3 209.179 184.372 215.89 254.332 215.926C294.293 215.926 331.51 213.712 362.793 209.886C391.262 206.389 414.645 201.632 431.141 195.769ZM32.4532 218.457L33.3598 228.288L39.4233 236.083C40.742 237.79 41.0363 240.062 40.1768 242.04C39.3174 244.018 37.4688 245.361 35.3143 245.561L25.4831 246.467L17.6887 252.531C15.9815 253.85 13.7092 254.144 11.7311 253.284C9.75311 252.425 8.41092 250.576 8.21076 248.422L7.30417 238.591L1.24059 230.796C-0.078098 229.089 -0.372386 226.817 0.487099 224.839C1.34658 222.861 3.19509 221.518 5.34969 221.318L15.1809 220.412L22.9752 214.348C24.6824 213.029 26.9547 212.735 28.9328 213.595C30.9108 214.454 32.253 216.303 32.4532 218.457ZM18.9603 236.624L19.6197 236.106C20.5027 235.423 21.5741 234.999 22.6926 234.894L23.5403 234.811L23.0222 234.152C22.3394 233.269 21.9155 232.197 21.8095 231.079L21.7272 230.243L21.0678 230.761C20.1848 231.444 19.1133 231.868 17.9948 231.974L17.1589 232.056L17.677 232.715C18.3598 233.598 18.7837 234.67 18.8896 235.788L18.9603 236.624ZM456.066 316.557C439.253 322.962 412.691 328.661 379.901 332.676C345.297 336.938 303.794 339.422 259.195 339.422C215.184 339.422 174.187 336.997 139.855 332.852C107.523 328.955 81.1617 323.433 64.0189 317.193C63.1241 309.564 62.5354 301.84 62.5354 293.963C62.5354 272.476 66.0793 251.86 72.4137 232.503C88.1436 239.544 111.691 245.16 141.044 249.423C174.646 254.25 215.667 257.087 259.972 257.087C304.924 257.087 346.475 254.179 380.348 249.211C409.088 244.948 432.059 239.415 447.542 232.445C453.888 251.813 457.443 272.452 457.443 293.951C457.443 301.616 456.914 309.128 456.066 316.557ZM542.215 271.899L548.738 293.174C549.374 295.235 548.832 297.46 547.325 299.014C545.818 300.557 543.617 301.145 541.533 300.568L520.104 294.575L498.829 301.098C496.756 301.734 494.531 301.192 492.989 299.685C491.446 298.178 490.858 295.977 491.435 293.893L497.428 272.464L490.905 251.189C490.269 249.117 490.811 246.891 492.318 245.349C493.825 243.806 496.026 243.218 498.11 243.795L519.539 249.788L540.814 243.265C542.886 242.629 545.112 243.171 546.654 244.678C548.197 246.185 548.785 248.386 548.208 250.47L542.215 271.899ZM518.303 282.802C519.374 282.484 520.528 282.46 521.611 282.766L534.339 286.322L530.465 273.689C530.147 272.617 530.124 271.463 530.43 270.38L533.985 257.652L521.352 261.526C520.281 261.844 519.127 261.868 518.044 261.561L505.316 258.006L509.19 270.639C509.508 271.711 509.531 272.864 509.225 273.948L505.669 286.675L518.303 282.802ZM402.589 430.305C363.617 436.969 311.565 441.09 254.344 441.078C203.386 441.078 156.503 437.817 119.309 432.401C92.2998 404.956 73.3556 369.693 66.0205 330.297C84.2583 336.125 108.948 340.941 138.43 344.52C173.316 348.735 214.736 351.184 259.183 351.184C304.23 351.184 346.157 348.676 381.325 344.355C411.125 340.67 435.933 335.749 454.041 329.756C453.064 335.066 451.816 340.27 450.426 345.427C448.613 343.437 446.058 342.142 443.15 342.142C437.663 342.142 433.236 346.581 433.225 352.067C433.225 357.554 437.663 361.981 443.15 361.993C443.915 361.993 444.598 361.722 445.316 361.557C435.885 387.424 421.274 410.772 402.589 430.305ZM418.955 361.981C419.606 361.981 420.252 361.917 420.891 361.79C421.53 361.663 422.151 361.475 422.753 361.225C423.355 360.976 423.927 360.671 424.468 360.308C425.011 359.946 425.512 359.535 425.973 359.074C426.434 358.613 426.845 358.112 427.207 357.569C427.57 357.028 427.875 356.456 428.124 355.854C428.374 355.252 428.562 354.631 428.689 353.992C428.816 353.353 428.88 352.707 428.88 352.056C428.88 351.404 428.816 350.758 428.689 350.119C428.562 349.48 428.374 348.859 428.124 348.257C427.875 347.655 427.57 347.084 427.207 346.542C426.845 346 426.434 345.498 425.973 345.037C425.512 344.576 425.011 344.165 424.468 343.803C423.927 343.441 423.355 343.135 422.753 342.886C422.151 342.637 421.53 342.448 420.891 342.321C420.252 342.194 419.606 342.13 418.955 342.13C418.303 342.13 417.657 342.194 417.018 342.321C416.379 342.448 415.758 342.637 415.156 342.886C414.554 343.135 413.982 343.441 413.441 343.803C412.898 344.165 412.397 344.576 411.936 345.037C411.475 345.498 411.064 346 410.702 346.542C410.34 347.083 410.034 347.655 409.785 348.257C409.535 348.859 409.347 349.48 409.22 350.119C409.093 350.758 409.029 351.404 409.029 352.056C409.029 352.707 409.093 353.353 409.22 353.992C409.347 354.631 409.535 355.252 409.785 355.854C410.034 356.456 410.34 357.028 410.702 357.569C411.064 358.112 411.475 358.613 411.936 359.074C412.397 359.535 412.898 359.946 413.441 360.308C413.982 360.671 414.554 360.976 415.156 361.225C415.758 361.475 416.379 361.663 417.018 361.79C417.657 361.917 418.303 361.981 418.955 361.981ZM399.587 381.349C400.238 381.349 400.884 381.285 401.523 381.158C402.162 381.031 402.783 380.843 403.385 380.593C403.987 380.344 404.559 380.039 405.1 379.676C405.643 379.314 406.144 378.903 406.605 378.442C407.066 377.981 407.477 377.48 407.839 376.937C408.201 376.396 408.507 375.824 408.756 375.222C409.006 374.62 409.194 373.999 409.321 373.36C409.448 372.721 409.512 372.075 409.512 371.424C409.512 370.772 409.448 370.127 409.321 369.487C409.194 368.848 409.006 368.227 408.756 367.625C408.507 367.023 408.201 366.452 407.839 365.91C407.477 365.368 407.066 364.866 406.605 364.405C406.144 363.945 405.643 363.533 405.1 363.171C404.559 362.809 403.987 362.503 403.385 362.254C402.783 362.005 402.162 361.816 401.523 361.689C400.884 361.562 400.238 361.498 399.587 361.498C398.935 361.498 398.289 361.562 397.65 361.689C397.011 361.816 396.39 362.005 395.788 362.254C395.186 362.503 394.614 362.809 394.073 363.171C393.53 363.533 393.029 363.945 392.568 364.405C392.107 364.866 391.696 365.368 391.334 365.91C390.972 366.452 390.666 367.023 390.417 367.625C390.167 368.227 389.979 368.848 389.852 369.487C389.725 370.127 389.661 370.772 389.661 371.424C389.661 372.075 389.725 372.721 389.852 373.36C389.979 373.999 390.167 374.62 390.417 375.222C390.666 375.824 390.972 376.396 391.334 376.937C391.696 377.48 392.107 377.981 392.568 378.442C393.029 378.903 393.53 379.314 394.073 379.676C394.614 380.039 395.186 380.344 395.788 380.593C396.39 380.843 397.011 381.031 397.65 381.158C398.289 381.285 398.935 381.349 399.587 381.349ZM423.794 386.188C424.445 386.188 425.091 386.125 425.73 385.997C426.369 385.87 426.99 385.682 427.592 385.432C428.194 385.183 428.766 384.878 429.307 384.515C429.85 384.153 430.351 383.742 430.812 383.281C431.273 382.82 431.684 382.319 432.046 381.776C432.409 381.235 432.714 380.663 432.963 380.061C433.213 379.459 433.401 378.838 433.528 378.2C433.655 377.56 433.719 376.914 433.719 376.263C433.719 375.611 433.655 374.966 433.528 374.326C433.401 373.687 433.213 373.067 432.963 372.465C432.714 371.862 432.409 371.291 432.046 370.749C431.684 370.207 431.273 369.705 430.812 369.244C430.351 368.784 429.85 368.372 429.307 368.01C428.766 367.648 428.194 367.342 427.592 367.093C426.99 366.844 426.369 366.655 425.73 366.528C425.091 366.401 424.445 366.337 423.794 366.337C423.142 366.337 422.497 366.401 421.857 366.528C421.218 366.655 420.598 366.844 419.995 367.093C419.393 367.342 418.822 367.648 418.28 368.01C417.738 368.372 417.236 368.784 416.775 369.244C416.315 369.705 415.903 370.207 415.541 370.749C415.179 371.291 414.873 371.862 414.624 372.465C414.375 373.067 414.186 373.687 414.059 374.326C413.932 374.966 413.868 375.611 413.868 376.263C413.868 376.914 413.932 377.56 414.059 378.2C414.186 378.838 414.375 379.459 414.624 380.061C414.873 380.663 415.179 381.235 415.541 381.776C415.903 382.319 416.315 382.82 416.775 383.281C417.236 383.742 417.738 384.153 418.28 384.515C418.822 384.878 419.393 385.183 419.995 385.432C420.598 385.682 421.218 385.87 421.857 385.997C422.497 386.125 423.142 386.188 423.794 386.188ZM134.333 446.258C169.077 450.426 210.18 452.852 254.356 452.852C304.265 452.852 350.242 449.755 387.565 444.528C353.139 473.727 308.68 491.4 260.007 491.4C212.229 491.411 168.477 474.469 134.333 446.258Z" fill="url(#paint0_linear_13_128)"/>
<defs>
<linearGradient id="paint0_linear_13_128" x1="27.1808" y1="-1.82806e-06" x2="521.819" y2="503.197" gradientUnits="userSpaceOnUse">
<stop offset="0.255" stop-color="#737373"/>
<stop offset="1" stop-color="white"/>
</linearGradient>
</defs>
</svg>
